<svg width="43" height="36" viewBox="0 0 43 36" fill="none" xmlns="http://www.w3.org/2000/svg">
<path d="M42.3077 4.45312V31.1719C42.3077 32.3965 41.8934 33.4448 41.0649 34.3169C40.2364 35.189 39.2404 35.625 38.0769 35.625H4.23077C3.06731 35.625 2.07131 35.189 1.24279 34.3169C0.414263 33.4448 0 32.3965 0 31.1719V4.45312C0 3.22852 0.414263 2.18018 1.24279 1.30811C2.07131 0.436035 3.06731 0 4.23077 0H38.0769C39.2404 0 40.2364 0.436035 41.0649 1.30811C41.8934 2.18018 42.3077 3.22852 42.3077 4.45312ZM4.23077 8.90625H38.0769V4.45312H4.23077V8.90625ZM4.23077 17.8125V31.1719H38.0769V17.8125H4.23077Z" fill="#1F1F1F"/>
</svg>
