<svg width="50" height="50" viewBox="0 0 50 50" fill="none" xmlns="http://www.w3.org/2000/svg">
<path fill-rule="evenodd" clip-rule="evenodd" d="M19.458 0C17.5229 0 15.8526 1.09099 15.0748 2.66872C13.1809 2.68197 11.7048 2.76565 10.3872 3.26128C8.81293 3.85347 7.44361 4.86013 6.43584 6.16613C5.41918 7.48371 4.94192 9.17248 4.28506 11.4969L4.15653 11.9512L2.7359 19.8526C2.22184 20.1939 1.77537 20.5981 1.38708 21.0768C-1.10887 24.1533 0.0796845 28.7291 2.45683 37.8805C3.96873 43.7011 4.72469 46.6112 6.97946 48.3056C9.23422 50 12.3511 50 18.5848 50H31.4152C37.649 50 40.7658 50 43.0206 48.3056C45.2752 46.6112 46.0313 43.7011 47.5433 37.8805C49.9203 28.7291 51.1089 24.1533 48.6128 21.0768C48.2243 20.5977 47.7774 20.1933 47.2629 19.8518L45.8423 11.9512L45.7138 11.4969C45.0568 9.17248 44.5797 7.48371 43.5631 6.16613C42.5554 4.86013 41.1859 3.85347 39.6118 3.26128C38.2941 2.76565 36.8181 2.68197 34.924 2.66872C34.1463 1.09099 32.4761 0 30.541 0H19.458ZM42.7818 18.3886L41.7807 12.8204C40.9944 10.0478 40.709 9.17656 40.2264 8.55101C39.6838 7.84776 38.9466 7.30571 38.0987 6.98685C37.4897 6.75776 36.7538 6.69035 34.9201 6.67251C34.1407 8.246 32.4728 9.33333 30.541 9.33333H19.458C17.5261 9.33333 15.8582 8.246 15.0787 6.67251C13.245 6.69035 12.5091 6.75776 11.9001 6.98685C11.0524 7.30571 10.3151 7.84776 9.77246 8.55099C9.28977 9.17653 9.00438 10.0478 8.21811 12.8204L7.21693 18.3887C9.98256 18 13.6667 18 18.5848 18H31.4152C36.3327 18 40.0163 18 42.7818 18.3886ZM13.9172 26.6667C15.0649 26.6667 15.9953 27.5621 15.9953 28.6667V39.3333C15.9953 40.4379 15.0649 41.3333 13.9172 41.3333C12.7696 41.3333 11.8392 40.4379 11.8392 39.3333V28.6667C11.8392 27.5621 12.7696 26.6667 13.9172 26.6667ZM38.1611 28.6667C38.1611 27.5621 37.2307 26.6667 36.083 26.6667C34.9354 26.6667 34.005 27.5621 34.005 28.6667V39.3333C34.005 40.4379 34.9354 41.3333 36.083 41.3333C37.2307 41.3333 38.1611 40.4379 38.1611 39.3333V28.6667ZM25.0001 26.6667C26.1477 26.6667 27.0782 27.5621 27.0782 28.6667V39.3333C27.0782 40.4379 26.1477 41.3333 25.0001 41.3333C23.8525 41.3333 22.9221 40.4379 22.9221 39.3333V28.6667C22.9221 27.5621 23.8525 26.6667 25.0001 26.6667Z" fill="#E49203"/>
</svg>
