<svg width="45" height="45" viewBox="0 0 45 45" fill="none" xmlns="http://www.w3.org/2000/svg">
<path d="M4.28571 35V15V15.8125V5V35ZM4.28571 10H38.5714V5H4.28571V10ZM20.7321 40H4.28571C3.10714 40 2.09821 39.5104 1.25893 38.5312C0.419643 37.5521 0 36.375 0 35V5C0 3.625 0.419643 2.44792 1.25893 1.46875C2.09821 0.489583 3.10714 0 4.28571 0H38.5714C39.75 0 40.7589 0.489583 41.5982 1.46875C42.4375 2.44792 42.8571 3.625 42.8571 5V18.125C41.5714 17.0833 40.1786 16.3021 38.6786 15.7812C37.1786 15.2604 35.6429 15 34.0714 15C32.1429 15 30.2857 15.4375 28.5 16.3125C26.7143 17.1875 25.1429 18.4167 23.7857 20H4.28571V35H19.4464C19.5536 35.875 19.7143 36.7292 19.9286 37.5625C20.1429 38.3958 20.4107 39.2083 20.7321 40ZM37.875 38.4375L39.375 36.6875L35.3571 32V25H33.2143V33L37.875 38.4375ZM34.3393 45C31.3393 45 28.7946 43.7917 26.7054 41.375C24.6161 38.9583 23.5714 36 23.5714 32.5C23.5714 29 24.6161 26.0417 26.7054 23.625C28.7946 21.2083 31.3393 20 34.3393 20C37.3036 20 39.8214 21.2188 41.8929 23.6562C43.9643 26.0938 45 29.0417 45 32.5C45 35.9583 43.9643 38.9062 41.8929 41.3438C39.8214 43.7812 37.3036 45 34.3393 45Z" fill="#1F1F1F"/>
</svg>
