<svg width="41" height="45" viewBox="0 0 41 45" fill="none" xmlns="http://www.w3.org/2000/svg">
<path d="M19.34 25.4023C19.7709 24.9333 20.5129 24.9333 20.9437 25.4023L27.0872 32.0894C28.2202 33.3226 29.7281 34 31.3238 34H32.5286L24.7814 42.4327C22.3639 44.9946 18.4384 44.9946 16.0209 42.4327L8.24182 33.9739H8.98383C10.5795 33.9739 12.0875 33.2965 13.2204 32.0633L19.34 25.4023ZM20.9437 19.0104C20.4331 19.4881 19.7788 19.4968 19.34 19.0104L13.2204 12.3494C12.0875 11.038 10.5795 10.4388 8.98383 10.4388H8.24182L16.0129 1.97656C18.4384 -0.658854 22.3639 -0.658854 24.7814 1.97656L32.5366 10.4127H31.3238C29.7281 10.4127 28.2202 11.0901 27.0872 12.3233L20.9437 19.0104ZM8.98383 12.3928C10.0849 12.3928 11.0982 12.8791 11.9439 13.7302L18.0634 20.3913C18.6379 20.9384 19.3879 21.3292 20.1458 21.3292C20.8958 21.3292 21.6458 20.9384 22.2203 20.3913L28.3638 13.7042C29.1457 12.8618 30.2228 12.3754 31.3238 12.3754H34.3317L38.9832 17.4385C41.4008 20.07 41.4008 24.3428 38.9832 26.9742L34.3317 32.0373H31.3238C30.2228 32.0373 29.1457 31.5509 28.3638 30.6999L22.2203 24.0128C21.1113 22.8056 19.1725 22.8056 18.0634 24.0214L11.9439 30.6738C11.0982 31.5249 10.0849 32.0112 8.98383 32.0112H6.44505L1.81588 26.9742C-0.605295 24.3428 -0.605295 20.07 1.81588 17.4385L6.44505 12.3928H8.98383Z" fill="black"/>
</svg>
